<svg width="2906" height="761" viewBox="0 0 2906 761" fill="none" xmlns="http://www.w3.org/2000/svg">
<path d="M3662 2168C3662 1883.29 3604.88 1601.38 3493.89 1338.34C3382.9 1075.31 3220.22 836.31 3015.15 634.992C2810.07 433.675 2566.6 273.981 2298.66 165.029C2030.71 56.077 1743.52 -1.24449e-05 1453.5 0C1163.48 1.24449e-05 876.291 56.077 608.344 165.029C340.396 273.981 96.9327 433.675 -108.145 634.993C-313.224 836.31 -475.901 1075.31 -586.888 1338.34C-697.876 1601.38 -755 1883.29 -755 2168L-439.719 2168C-439.719 1923.94 -390.749 1682.27 -295.606 1456.78C-200.463 1231.3 -61.0096 1026.42 114.792 853.842C290.594 681.264 499.301 544.368 728.996 450.969C958.692 357.571 1204.88 309.499 1453.5 309.499C1702.12 309.499 1948.31 357.571 2178 450.969C2407.7 544.368 2616.41 681.264 2792.21 853.842C2968.01 1026.42 3107.46 1231.3 3202.61 1456.78C3297.75 1682.27 3346.72 1923.94 3346.72 2168H3662Z" fill="#6ABCF3"/>
</svg>
