<svg width="2906" height="455" viewBox="0 0 2906 455" fill="none" xmlns="http://www.w3.org/2000/svg">
<path d="M3491 1999.5C3491 1736.92 3438.31 1476.91 3335.94 1234.32C3233.57 991.734 3083.53 771.311 2894.38 585.64C2705.22 399.969 2480.67 252.687 2233.53 152.203C1986.39 51.7186 1721.5 -1.14777e-05 1454 0C1186.5 1.14777e-05 921.614 51.7186 674.474 152.203C427.334 252.687 202.776 399.969 13.6234 585.64C-175.53 771.311 -325.574 991.734 -427.943 1234.32C-530.311 1476.92 -583 1736.92 -583 1999.5L-225.568 1999.5C-225.568 1783 -182.124 1568.61 -97.7183 1368.59C-13.3121 1168.57 110.404 986.821 266.366 833.73C422.328 680.639 607.483 559.2 811.257 476.348C1015.03 393.496 1233.44 350.852 1454 350.852C1674.56 350.852 1892.97 393.496 2096.74 476.348C2300.52 559.2 2485.67 680.639 2641.63 833.73C2797.6 986.821 2921.31 1168.57 3005.72 1368.59C3090.12 1568.61 3133.57 1783 3133.57 1999.5H3491Z" fill="#77DCFF"/>
</svg>
